<svg height="24" viewBox="0 0 24.000001 24.000001" width="24" xmlns="http://www.w3.org/2000/svg"><path d="m20.36 1012.6436c-11.24375 0-20.36 9.1163-20.36 20.3625 0 8.9963 5.83375 16.6275 13.925 19.3212 1.01875.1863 1.39-.4424 1.39-.9824 0-.4825-.0175-1.7638-.0275-3.4625-5.66375 1.23-6.85875-2.73-6.85875-2.73-.92625-2.3525-2.26125-2.9788-2.26125-2.9788-1.84875-1.2625.14-1.2375.14-1.2375 2.04375.1438 3.11875 2.0987 3.11875 2.0987 1.81625 3.1113 4.76625 2.2126 5.92625 1.6913.185-1.315.71-2.2125 1.2925-2.7212-4.52125-.5138-9.275-2.2613-9.275-10.0638 0-2.2225.79375-4.04 2.09625-5.4637-.21-.5151-.90875-2.5851.19875-5.3888 0 0 1.71-.5475 5.6 2.0875 1.62375-.4525 3.36625-.6775 5.0975-.685 1.72875.01 3.47125.2325 5.0975.685 3.8875-2.635 5.59375-2.0875 5.59375-2.0875 1.11125 2.8037.4125 4.8737.2025 5.3888 1.305 1.4237 2.09375 3.2412 2.09375 5.4637 0 7.8225-4.76125 9.5438-9.2975 10.0475.73125.6288 1.3825 1.8713 1.3825 3.7713 0 2.7212-.025 4.9175-.025 5.585 0 .5449.36625 1.1787 1.4.98 8.085-2.6988 13.91375-10.325 13.91375-19.3188 0-11.2462-9.1175-20.3625-20.36375-20.3625" fill="#f9f9f9" fill-rule="evenodd" transform="matrix(.58933672 0 0 .58933672 0 -596.1957)"/></svg>