<svg height="24" viewBox="0 0 24 24" width="24" xmlns="http://www.w3.org/2000/svg"><g fill="none" fill-rule="evenodd"><path d="M23.955 13.587l-1.343-4.133-2.661-8.192a.457.457 0 0 0-.87 0l-2.662 8.192H7.581L4.919 1.262a.457.457 0 0 0-.87 0L1.388 9.454.045 13.587a.915.915 0 0 0 .332 1.023L12 23.054l11.623-8.444a.915.915 0 0 0 .332-1.023" fill="#fc6d26"/><path d="M12 23.054l4.419-13.6H7.581z" fill="#e24329"/><path d="M12 23.054l-4.419-13.6H1.388z" fill="#fc6d26"/><path d="M1.388 9.454L.045 13.587a.915.915 0 0 0 .332 1.022L12 23.054z" fill="#fca326"/><path d="M1.388 9.454H7.58L4.919 1.262a.457.457 0 0 0-.87 0z" fill="#e24329"/><path d="M12 23.054l4.419-13.6h6.193z" fill="#fc6d26"/><path d="M22.612 9.454l1.343 4.133a.915.915 0 0 1-.332 1.022L12 23.054z" fill="#fca326"/><path d="M22.612 9.454H16.42l2.662-8.192a.457.457 0 0 1 .87 0z" fill="#e24329"/></g></svg>