<svg height="25.730801" viewBox="0 0 24.000001 25.730801" width="24" xmlns="http://www.w3.org/2000/svg"><path d="m18.524173 12.509167c-.998692 0-1.808493-.812354-1.808493-1.811046 0-.9983728.809801-1.8107268 1.808493-1.8107268 1.000925 0 1.810727.812354 1.810727 1.8107268 0 .998692-.809802 1.811046-1.810727 1.811046m-6.524041 0c-1.001244 0-1.811046-.812354-1.811046-1.811046 0-.9983728.809802-1.8107268 1.811046-1.8107268.998373 0 1.810727.812354 1.810727 1.8107268 0 .998692-.812354 1.811046-1.810727 1.811046m-6.526912 0c-.9983725 0-1.8081742-.812354-1.8081742-1.811046 0-.9983728.8098017-1.8107268 1.8081742-1.8107268 1.0009251 0 1.8107268.812354 1.8107268 1.8107268 0 .998692-.8098017 1.811046-1.8107268 1.811046m18.525889-4.0598568c0-5.581506-3.656232-7.217063-3.656232-7.217063-1.845506-.84713201-5.010688-1.20289601-8.300308-1.23225101h-.07977c-3.289939.02935-6.4551213.385119-8.2977552 1.23225101 0 0-3.6562323 1.635557-3.6562323 7.217063 0 1.27724-.02680195 2.8065468.0130819 4.4261498.13273346 5.459621 1.0009251 10.839154 6.0489442 12.174788 2.3260262.6158 4.3253234.74343 5.9343974.65569 2.915669-.16177 4.553779-1.040493 4.553779-1.040493l-.0954-2.119268s-2.08449.658562-4.42647.578795c-2.3206014-.07977-4.7688316-.249514-5.1459733-3.098497-.03446-.249832-.050413-.517852-.050413-.799272 0 0 2.275613.557735 5.1644793.687597 1.763186.08232 3.42012-.100507 5.100985-.302479 3.223254-.385118 6.030119-2.371334 6.383331-4.187485.554864-2.85696.509556-6.9755258.509556-6.9755258" fill="#3088d4"/></svg>