<svg xmlns="http://www.w3.org/2000/svg" viewBox="0 0 94.023018 100.80365" height="107.524" width="100.291"><path d="M72.57 49.006c-3.912 0-7.084-3.182-7.084-7.095 0-3.911 3.172-7.093 7.085-7.093a7.096 7.096 0 0 1 7.094 7.093 7.096 7.096 0 0 1-7.094 7.095m-25.559 0a7.096 7.096 0 0 1-7.095-7.095 7.096 7.096 0 0 1 7.095-7.093c3.911 0 7.094 3.182 7.094 7.093 0 3.913-3.183 7.095-7.094 7.095m-25.57 0c-3.911 0-7.084-3.182-7.084-7.095 0-3.911 3.173-7.093 7.084-7.093a7.096 7.096 0 0 1 7.094 7.093 7.096 7.096 0 0 1-7.094 7.095M94.02 33.101c0-21.866-14.324-28.273-14.324-28.273C72.466 1.508 60.066.115 47.178 0h-.312C33.977.115 21.577 1.509 14.358 4.828c0 0-14.323 6.407-14.323 28.273 0 5.004-.105 10.995.05 17.34.52 21.389 3.922 42.464 23.698 47.697 9.113 2.412 16.945 2.912 23.249 2.568 11.423-.634 17.84-4.076 17.84-4.076l-.374-8.303s-8.166 2.58-17.341 2.268c-9.091-.313-18.682-.978-20.16-12.139a23.032 23.032 0 0 1-.197-3.131s8.915 2.185 20.232 2.694c6.908.322 13.399-.394 19.984-1.185 12.627-1.509 23.624-9.29 25.007-16.405C94.197 49.236 94.02 33.1 94.02 33.1" fill="#3088d4"/></svg>