<svg height="25.731" viewBox="0 0 24.000001 25.730801" width="24" xmlns="http://www.w3.org/2000/svg"><path d="M18.524 12.51a1.81 1.81 0 1 1 .005-3.622 1.81 1.81 0 0 1-.005 3.621m-6.524 0a1.811 1.811 0 1 1 0-3.623 1.811 1.811 0 0 1 0 3.623m-6.527 0a1.81 1.81 0 0 1 0-3.622 1.811 1.811 0 0 1 0 3.622M24 8.45c0-5.581-3.656-7.217-3.656-7.217C18.497.385 15.333.03 12.043 0h-.08c-3.29.03-6.455.385-8.298 1.232 0 0-3.656 1.636-3.656 7.217 0 1.278-.027 2.807.013 4.426.133 5.46 1 10.84 6.049 12.175 2.326.616 4.325.744 5.934.656 2.916-.162 4.554-1.04 4.554-1.04l-.095-2.12s-2.085.659-4.427.579c-2.32-.08-4.769-.25-5.146-3.099a5.879 5.879 0 0 1-.05-.799s2.275.558 5.164.688c1.763.082 3.42-.1 5.101-.303 3.223-.385 6.03-2.371 6.384-4.187.554-2.857.51-6.976.51-6.976" fill="#3088d4"/></svg>