<svg height="24" viewBox="0 0 24 24" width="24" xmlns="http://www.w3.org/2000/svg"><g fill="none" fill-rule="evenodd" transform="matrix(.04873003 0 0 -.04873003 -.04595567566 23.110449734659)"><path d="m491.99999 194.66666-27.55867 84.81467-54.61733 168.09733c-2.80933 8.64799-15.04533 8.64799-17.856 0l-54.61866-168.09733h-181.36667l-54.62 168.09733c-2.809329 8.64799-15.045329 8.64799-17.855995 0l-54.617332-168.09733-27.557333-84.81467c-2.5146666-7.736.24-16.21066 6.8199998-20.992l238.5133302-173.28932668 238.51466 173.28932668c6.58 4.78134 9.33333 13.256 6.82 20.992" fill="#fc6d26" transform="translate(.532 .774933)"/><path d="m90.999998 0 90.683992 279.09599h-181.36799003z" fill="#e24329" transform="translate(156.19786 1.160267)"/><path d="m218.66666 0-90.684 279.09466h-127.09199336z" fill="#fc6d26" transform="translate(28.531199 1.1608)"/><path d="m29.333333 279.99999-27.5586664-84.81466c-2.51333325-7.736.24-16.21067 6.8213332-20.99067l238.5133302-173.28932669z" fill="#fca326" transform="translate(.088533 .255867)"/><path d="m0 0h127.092l-54.618669 168.09733c-2.810666 8.64933-15.046666 8.64933-17.855999 0z" fill="#e24329" transform="translate(29.421866 280.25559)"/><path d="m0 0 90.683998 279.09466h127.091992z" fill="#fc6d26" transform="translate(247.19786 1.1608)"/><path d="m218.66666 279.99999 27.55867-84.81466c2.51333-7.736-.24-16.21067-6.82134-20.99067l-238.51332336-173.28932669z" fill="#fca326" transform="translate(246.30706 .255867)"/><path d="m128 0h-127.09200002l54.61866502 168.09733c2.810667 8.64933 15.046667 8.64933 17.856 0z" fill="#e24329" transform="translate(336.97372 280.25559)"/></g></svg>