<?xml version="1.0" encoding="UTF-8" standalone="no"?>
<svg
   xmlns:dc="http://purl.org/dc/elements/1.1/"
   xmlns:cc="http://creativecommons.org/ns#"
   xmlns:rdf="http://www.w3.org/1999/02/22-rdf-syntax-ns#"
   xmlns:svg="http://www.w3.org/2000/svg"
   xmlns="http://www.w3.org/2000/svg"
   xmlns:sodipodi="http://sodipodi.sourceforge.net/DTD/sodipodi-0.dtd"
   xmlns:inkscape="http://www.inkscape.org/namespaces/inkscape"
   viewBox="0 0 24.000001 25.730801"
   height="25.730801"
   width="24"
   id="svg2"
   version="1.1"
   inkscape:version="0.91 r13725"
   sodipodi:docname="mastodon-24.svg">
  <metadata
     id="metadata10">
    <rdf:RDF>
      <cc:Work
         rdf:about="">
        <dc:format>image/svg+xml</dc:format>
        <dc:type
           rdf:resource="http://purl.org/dc/dcmitype/StillImage" />
        <dc:title></dc:title>
      </cc:Work>
    </rdf:RDF>
  </metadata>
  <defs
     id="defs8" />
  <sodipodi:namedview
     pagecolor="#ffffff"
     bordercolor="#666666"
     borderopacity="1"
     objecttolerance="10"
     gridtolerance="10"
     guidetolerance="10"
     inkscape:pageopacity="0"
     inkscape:pageshadow="2"
     inkscape:window-width="1366"
     inkscape:window-height="705"
     id="namedview6"
     showgrid="false"
     inkscape:zoom="2.3411851"
     inkscape:cx="-3.3903134"
     inkscape:cy="50.401823"
     inkscape:window-x="0"
     inkscape:window-y="30"
     inkscape:window-maximized="1"
     inkscape:current-layer="svg2"
     units="px"
     fit-margin-top="0"
     fit-margin-left="0"
     fit-margin-right="0"
     fit-margin-bottom="0" />
  <path
     d="m 18.524173,12.509167 c -0.998692,0 -1.808493,-0.812354 -1.808493,-1.811046 0,-0.9983728 0.809801,-1.8107268 1.808493,-1.8107268 1.000925,0 1.810727,0.812354 1.810727,1.8107268 0,0.998692 -0.809802,1.811046 -1.810727,1.811046 m -6.524041,0 c -1.001244,0 -1.811046,-0.812354 -1.811046,-1.811046 0,-0.9983728 0.809802,-1.8107268 1.811046,-1.8107268 0.998373,0 1.810727,0.812354 1.810727,1.8107268 0,0.998692 -0.812354,1.811046 -1.810727,1.811046 m -6.526912,0 c -0.9983725,0 -1.8081742,-0.812354 -1.8081742,-1.811046 0,-0.9983728 0.8098017,-1.8107268 1.8081742,-1.8107268 1.0009251,0 1.8107268,0.812354 1.8107268,1.8107268 0,0.998692 -0.8098017,1.811046 -1.8107268,1.811046 M 23.999109,8.4493102 c 0,-5.581506 -3.656232,-7.217063 -3.656232,-7.217063 C 18.497371,0.38511519 15.332189,0.02935119 12.042569,-3.8146975e-6 l -0.07977,0 C 8.67286,0.02934619 5.5076777,0.38511519 3.6650438,1.2322472 c 0,0 -3.6562323,1.635557 -3.6562323,7.217063 0,1.27724 -0.02680195,2.8065468 0.0130819,4.4261498 0.13273346,5.459621 1.0009251,10.839154 6.0489442,12.174788 2.3260262,0.6158 4.3253234,0.74343 5.9343974,0.65569 2.915669,-0.16177 4.553779,-1.040493 4.553779,-1.040493 l -0.0954,-2.119268 c 0,0 -2.08449,0.658562 -4.42647,0.578795 -2.3206014,-0.07977 -4.7688316,-0.249514 -5.1459733,-3.098497 -0.03446,-0.249832 -0.050413,-0.517852 -0.050413,-0.799272 0,0 2.275613,0.557735 5.1644793,0.687597 1.763186,0.08232 3.42012,-0.100507 5.100985,-0.302479 3.223254,-0.385118 6.030119,-2.371334 6.383331,-4.187485 0.554864,-2.85696 0.509556,-6.9755258 0.509556,-6.9755258"
     id="path4"
     style="fill:#3088d4;fill-opacity:1"
     inkscape:connector-curvature="0" />
</svg>
