<svg height="39.719" viewBox="0 0 40.723999 39.719002" width="40.724" xmlns="http://www.w3.org/2000/svg"><g fill="#fff" fill-rule="evenodd"><path d="M185.712-111.569c-11.243 0-20.36 9.116-20.36 20.363 0 8.996 5.834 16.627 13.925 19.32 1.02.187 1.39-.442 1.39-.982 0-.482-.017-1.763-.027-3.462-5.664 1.23-6.859-2.73-6.859-2.73-.926-2.353-2.261-2.979-2.261-2.979-1.849-1.262.14-1.237.14-1.237 2.044.143 3.119 2.098 3.119 2.098 1.816 3.112 4.766 2.213 5.926 1.692.185-1.315.71-2.213 1.292-2.722-4.52-.513-9.275-2.26-9.275-10.063 0-2.223.794-4.04 2.097-5.464-.21-.515-.91-2.585.198-5.389 0 0 1.71-.547 5.6 2.088a19.45 19.45 0 0 1 5.098-.685c1.729.01 3.471.232 5.097.685 3.888-2.635 5.594-2.088 5.594-2.088 1.111 2.804.413 4.874.203 5.389 1.305 1.424 2.093 3.241 2.093 5.464 0 7.822-4.76 9.543-9.297 10.047.731.629 1.382 1.871 1.382 3.771 0 2.722-.025 4.918-.025 5.585 0 .545.367 1.18 1.4.98 8.085-2.698 13.914-10.325 13.914-19.318 0-11.247-9.117-20.363-20.364-20.363M20.36 0C9.116 0 0 9.117 0 20.363c0 8.996 5.834 16.627 13.925 19.321 1.019.186 1.39-.442 1.39-.982 0-.483-.017-1.764-.027-3.463-5.664 1.23-6.86-2.73-6.86-2.73-.925-2.352-2.26-2.979-2.26-2.979-1.85-1.262.14-1.237.14-1.237 2.043.144 3.118 2.099 3.118 2.099 1.816 3.11 4.766 2.212 5.926 1.69.185-1.314.71-2.212 1.293-2.72-4.521-.514-9.275-2.262-9.275-10.064 0-2.223.794-4.04 2.096-5.464-.21-.515-.909-2.585.199-5.389 0 0 1.71-.547 5.6 2.088a19.45 19.45 0 0 1 5.097-.685c1.73.01 3.472.232 5.098.685 3.887-2.635 5.594-2.088 5.594-2.088 1.111 2.804.412 4.874.202 5.39 1.305 1.423 2.094 3.24 2.094 5.463 0 7.822-4.761 9.544-9.298 10.047.732.63 1.383 1.872 1.383 3.772 0 2.72-.025 4.917-.025 5.585 0 .545.366 1.178 1.4.98 8.085-2.7 13.914-10.325 13.914-19.32C40.724 9.118 31.606 0 20.36 0"/></g></svg>