<svg height="24" viewBox="0 0 24.000001 24.000001" width="24" xmlns="http://www.w3.org/2000/svg"><path d="M11.999.592C5.373.592 0 5.965 0 12.592c0 5.303 3.438 9.8 8.207 11.387.6.11.819-.26.819-.579 0-.284-.01-1.039-.017-2.04-3.337.725-4.042-1.609-4.042-1.609-.546-1.386-1.332-1.756-1.332-1.756-1.09-.744.082-.729.082-.729 1.205.085 1.838 1.237 1.838 1.237 1.07 1.834 2.81 1.304 3.493.997.109-.775.418-1.304.762-1.604-2.665-.303-5.467-1.333-5.467-5.93 0-1.31.468-2.382 1.236-3.22-.124-.304-.536-1.524.117-3.177 0 0 1.008-.322 3.3 1.23.957-.266 1.984-.399 3.004-.403 1.02.006 2.046.137 3.005.404 2.29-1.553 3.296-1.23 3.296-1.23.655 1.652.243 2.872.12 3.175.769.84 1.233 1.91 1.233 3.22 0 4.61-2.806 5.625-5.479 5.921.431.371.815 1.103.815 2.223 0 1.604-.015 2.898-.015 3.291 0 .322.216.695.825.578 4.765-1.59 8.2-6.085 8.2-11.385 0-6.628-5.373-12-12.001-12" fill="#f9f9f9" fill-rule="evenodd"/></svg>